<svg xmlns="http://www.w3.org/2000/svg" version="1.1" xmlns:xlink="http://www.w3.org/1999/xlink" xmlns:svgjs="http://svgjs.dev/svgjs" viewBox="0 0 600 600"><path d="M318.8811340332031,401.2237854003906C314.6853281656901,401.5734354654948,302.6223856608073,405.7692413330078,295.80419921875,401.2237854003906C288.9860127766927,396.67832946777344,284.4405466715495,382.6923116048177,277.9720153808594,373.9510498046875C271.50348409016925,365.2097880045573,262.0629399617513,356.46852111816406,256.9930114746094,348.7762145996094C251.92308298746744,341.0839080810547,249.8251724243164,339.68532307942706,247.5524444580078,327.7972106933594C245.27971649169922,315.9090983072917,242.4825185139974,290.38460540771484,243.3566436767578,277.4475402832031C244.23076883951822,264.5104751586914,247.90209197998047,257.51747639973956,252.7971954345703,250.17481994628906C257.69229888916016,242.83216349283853,267.13285573323566,236.7132797241211,272.7272644042969,233.3916015625C278.3216730753581,230.0699234008789,278.14686075846356,230.76922607421875,286.3636474609375,230.2447509765625C294.58043416341144,229.72027587890625,313.8112030029297,228.67132314046225,322.0279846191406,230.2447509765625C330.24476623535156,231.81817881266275,332.34266153971356,236.71328989664713,335.6643371582031,239.68531799316406C338.9860127766927,242.657346089681,339.3356628417969,244.93006642659506,341.9580383300781,248.07691955566406C344.5804138183594,251.22377268473306,349.12586466471356,255.5944086710612,351.3985900878906,258.5664367675781C353.6713155110677,261.53846486409503,353.6713104248047,263.63636271158856,355.5943908691406,265.9090881347656C357.51747131347656,268.1818135579427,361.53846740722656,270.80418904622394,362.93707275390625,272.2027893066406C364.33567810058594,273.6013895670573,362.23777262369794,275.8741149902344,363.98602294921875,274.3006896972656C365.73427327473956,272.7272644042969,370.1048990885417,266.0839131673177,373.42657470703125,262.7622375488281C376.7482503255208,259.44056193033856,380.41957092285156,256.46853892008465,383.91607666015625,254.37063598632812C387.41258239746094,252.27273305257162,391.43357849121094,251.22377268473306,394.4056091308594,250.17481994628906C397.3776397705078,249.12586720784506,398.0769348144531,247.7272694905599,401.7482604980469,248.07691955566406C405.4195861816406,248.42656962076822,412.9370625813802,251.04894256591797,416.4335632324219,252.27272033691406C419.93006388346356,253.49649810791016,420.4545389811198,253.67133331298828,422.7272644042969,255.41958618164062C424.99998982747394,257.16783905029297,428.3216603597005,260.48951212565106,430.0699157714844,262.7622375488281C431.81817118326825,265.0349629720052,432.5174916585286,266.2587381998698,433.216796875,269.0559387207031C433.9161020914714,271.85313924153644,434.6154022216797,275.69928487141925,434.2657470703125,279.5454406738281C433.9160919189453,283.391596476237,431.81817118326825,288.2867177327474,431.1188659667969,292.13287353515625C430.4195607503255,295.9790293375651,430.7692159016927,299.3006998697917,430.0699157714844,302.62237548828125C429.37061564127606,305.9440511067708,429.19579060872394,308.391596476237,426.9230651855469,312.06292724609375C424.6503397623698,315.7342580159505,420.4545389811198,320.9790293375651,416.4335632324219,324.6503601074219C412.41258748372394,328.3216908772786,407.8671417236328,329.7202860514323,402.7972106933594,334.0909118652344C397.72727966308594,338.46153767903644,391.60838317871094,345.80418395996094,386.01397705078125,350.8741149902344C380.41957092285156,355.9440460205078,373.6013997395833,360.83916727701825,369.23077392578125,364.510498046875C364.8601481119792,368.18182881673175,363.28672790527344,370.27972412109375,359.79022216796875,372.902099609375C356.29371643066406,375.52447509765625,351.3985951741536,377.97202555338544,348.2517395019531,380.2447509765625C345.1048838297526,382.51747639973956,344.4055887858073,384.0908966064453,340.9090881347656,386.5384521484375C337.41258748372394,388.9860076904297,330.5944112141927,392.8321787516276,327.2727355957031,394.9300842285156C323.95105997721356,397.0279897054036,322.3776346842448,398.0769348144531,320.9790344238281,399.1258850097656C319.58043416341144,400.1748352050781,323.0769399007161,400.87413533528644,318.8811340332031,401.2237854003906C314.6853281656901,401.5734354654948,302.6223856608073,405.7692413330078,295.80419921875,401.2237854003906" fill="hsl(340, 45%, 50%)" stroke-width="17" stroke="hsl(340, 45%, 30%)"></path></svg>
